# High-Quality Cone
v 0.0 0.0 0.0
v 0.0 0.0 1.0
v 1.000000 0.000000 0.0
v 0.995185 0.098017 0.0
v 0.980785 0.195090 0.0
v 0.956940 0.290285 0.0
v 0.923880 0.382683 0.0
v 0.881921 0.471397 0.0
v 0.831470 0.555570 0.0
v 0.773010 0.634393 0.0
v 0.707107 0.707107 0.0
v 0.634393 0.773010 0.0
v 0.555570 0.831470 0.0
v 0.471397 0.881921 0.0
v 0.382683 0.923880 0.0
v 0.290285 0.956940 0.0
v 0.195090 0.980785 0.0
v 0.098017 0.995185 0.0
v 0.000000 1.000000 0.0
v -0.098017 0.995185 0.0
v -0.195090 0.980785 0.0
v -0.290285 0.956940 0.0
v -0.382683 0.923880 0.0
v -0.471397 0.881921 0.0
v -0.555570 0.831470 0.0
v -0.634393 0.773010 0.0
v -0.707107 0.707107 0.0
v -0.773010 0.634393 0.0
v -0.831470 0.555570 0.0
v -0.881921 0.471397 0.0
v -0.923880 0.382683 0.0
v -0.956940 0.290285 0.0
v -0.980785 0.195090 0.0
v -0.995185 0.098017 0.0
v -1.000000 0.000000 0.0
v -0.995185 -0.098017 0.0
v -0.980785 -0.195090 0.0
v -0.956940 -0.290285 0.0
v -0.923880 -0.382683 0.0
v -0.881921 -0.471397 0.0
v -0.831470 -0.555570 0.0
v -0.773010 -0.634393 0.0
v -0.707107 -0.707107 0.0
v -0.634393 -0.773010 0.0
v -0.555570 -0.831470 0.0
v -0.471397 -0.881921 0.0
v -0.382683 -0.923880 0.0
v -0.290285 -0.956940 0.0
v -0.195090 -0.980785 0.0
v -0.098017 -0.995185 0.0
v -0.000000 -1.000000 0.0
v 0.098017 -0.995185 0.0
v 0.195090 -0.980785 0.0
v 0.290285 -0.956940 0.0
v 0.382683 -0.923880 0.0
v 0.471397 -0.881921 0.0
v 0.555570 -0.831470 0.0
v 0.634393 -0.773010 0.0
v 0.707107 -0.707107 0.0
v 0.773010 -0.634393 0.0
v 0.831470 -0.555570 0.0
v 0.881921 -0.471397 0.0
v 0.923880 -0.382683 0.0
v 0.956940 -0.290285 0.0
v 0.980785 -0.195090 0.0
v 0.995185 -0.098017 0.0
vn 0.0 0.0 -1.0
vn 0.707100 0.000000 0.707100
vn 0.703695 0.069308 0.707100
vn 0.693513 0.137948 0.707100
vn 0.676653 0.205260 0.707100
vn 0.653275 0.270595 0.707100
vn 0.623607 0.333325 0.707100
vn 0.587932 0.392844 0.707100
vn 0.546596 0.448579 0.707100
vn 0.499995 0.499995 0.707100
vn 0.448579 0.546596 0.707100
vn 0.392844 0.587932 0.707100
vn 0.333325 0.623607 0.707100
vn 0.270595 0.653275 0.707100
vn 0.205260 0.676653 0.707100
vn 0.137948 0.693513 0.707100
vn 0.069308 0.703695 0.707100
vn 0.000000 0.707100 0.707100
vn -0.069308 0.703695 0.707100
vn -0.137948 0.693513 0.707100
vn -0.205260 0.676653 0.707100
vn -0.270595 0.653275 0.707100
vn -0.333325 0.623607 0.707100
vn -0.392844 0.587932 0.707100
vn -0.448579 0.546596 0.707100
vn -0.499995 0.499995 0.707100
vn -0.546596 0.448579 0.707100
vn -0.587932 0.392844 0.707100
vn -0.623607 0.333325 0.707100
vn -0.653275 0.270595 0.707100
vn -0.676653 0.205260 0.707100
vn -0.693513 0.137948 0.707100
vn -0.703695 0.069308 0.707100
vn -0.707100 0.000000 0.707100
vn -0.703695 -0.069308 0.707100
vn -0.693513 -0.137948 0.707100
vn -0.676653 -0.205260 0.707100
vn -0.653275 -0.270595 0.707100
vn -0.623607 -0.333325 0.707100
vn -0.587932 -0.392844 0.707100
vn -0.546596 -0.448579 0.707100
vn -0.499995 -0.499995 0.707100
vn -0.448579 -0.546596 0.707100
vn -0.392844 -0.587932 0.707100
vn -0.333325 -0.623607 0.707100
vn -0.270595 -0.653275 0.707100
vn -0.205260 -0.676653 0.707100
vn -0.137948 -0.693513 0.707100
vn -0.069308 -0.703695 0.707100
vn -0.000000 -0.707100 0.707100
vn 0.069308 -0.703695 0.707100
vn 0.137948 -0.693513 0.707100
vn 0.205260 -0.676653 0.707100
vn 0.270595 -0.653275 0.707100
vn 0.333325 -0.623607 0.707100
vn 0.392844 -0.587932 0.707100
vn 0.448579 -0.546596 0.707100
vn 0.499995 -0.499995 0.707100
vn 0.546596 -0.448579 0.707100
vn 0.587932 -0.392844 0.707100
vn 0.623607 -0.333325 0.707100
vn 0.653275 -0.270595 0.707100
vn 0.676653 -0.205260 0.707100
vn 0.693513 -0.137948 0.707100
vn 0.703695 -0.069308 0.707100
f 1//1 4//1 3//1
f 1//1 5//1 4//1
f 1//1 6//1 5//1
f 1//1 7//1 6//1
f 1//1 8//1 7//1
f 1//1 9//1 8//1
f 1//1 10//1 9//1
f 1//1 11//1 10//1
f 1//1 12//1 11//1
f 1//1 13//1 12//1
f 1//1 14//1 13//1
f 1//1 15//1 14//1
f 1//1 16//1 15//1
f 1//1 17//1 16//1
f 1//1 18//1 17//1
f 1//1 19//1 18//1
f 1//1 20//1 19//1
f 1//1 21//1 20//1
f 1//1 22//1 21//1
f 1//1 23//1 22//1
f 1//1 24//1 23//1
f 1//1 25//1 24//1
f 1//1 26//1 25//1
f 1//1 27//1 26//1
f 1//1 28//1 27//1
f 1//1 29//1 28//1
f 1//1 30//1 29//1
f 1//1 31//1 30//1
f 1//1 32//1 31//1
f 1//1 33//1 32//1
f 1//1 34//1 33//1
f 1//1 35//1 34//1
f 1//1 36//1 35//1
f 1//1 37//1 36//1
f 1//1 38//1 37//1
f 1//1 39//1 38//1
f 1//1 40//1 39//1
f 1//1 41//1 40//1
f 1//1 42//1 41//1
f 1//1 43//1 42//1
f 1//1 44//1 43//1
f 1//1 45//1 44//1
f 1//1 46//1 45//1
f 1//1 47//1 46//1
f 1//1 48//1 47//1
f 1//1 49//1 48//1
f 1//1 50//1 49//1
f 1//1 51//1 50//1
f 1//1 52//1 51//1
f 1//1 53//1 52//1
f 1//1 54//1 53//1
f 1//1 55//1 54//1
f 1//1 56//1 55//1
f 1//1 57//1 56//1
f 1//1 58//1 57//1
f 1//1 59//1 58//1
f 1//1 60//1 59//1
f 1//1 61//1 60//1
f 1//1 62//1 61//1
f 1//1 63//1 62//1
f 1//1 64//1 63//1
f 1//1 65//1 64//1
f 1//1 66//1 65//1
f 1//1 3//1 66//1
f 3//2 4//3 2//2
f 4//3 5//4 2//3
f 5//4 6//5 2//4
f 6//5 7//6 2//5
f 7//6 8//7 2//6
f 8//7 9//8 2//7
f 9//8 10//9 2//8
f 10//9 11//10 2//9
f 11//10 12//11 2//10
f 12//11 13//12 2//11
f 13//12 14//13 2//12
f 14//13 15//14 2//13
f 15//14 16//15 2//14
f 16//15 17//16 2//15
f 17//16 18//17 2//16
f 18//17 19//18 2//17
f 19//18 20//19 2//18
f 20//19 21//20 2//19
f 21//20 22//21 2//20
f 22//21 23//22 2//21
f 23//22 24//23 2//22
f 24//23 25//24 2//23
f 25//24 26//25 2//24
f 26//25 27//26 2//25
f 27//26 28//27 2//26
f 28//27 29//28 2//27
f 29//28 30//29 2//28
f 30//29 31//30 2//29
f 31//30 32//31 2//30
f 32//31 33//32 2//31
f 33//32 34//33 2//32
f 34//33 35//34 2//33
f 35//34 36//35 2//34
f 36//35 37//36 2//35
f 37//36 38//37 2//36
f 38//37 39//38 2//37
f 39//38 40//39 2//38
f 40//39 41//40 2//39
f 41//40 42//41 2//40
f 42//41 43//42 2//41
f 43//42 44//43 2//42
f 44//43 45//44 2//43
f 45//44 46//45 2//44
f 46//45 47//46 2//45
f 47//46 48//47 2//46
f 48//47 49//48 2//47
f 49//48 50//49 2//48
f 50//49 51//50 2//49
f 51//50 52//51 2//50
f 52//51 53//52 2//51
f 53//52 54//53 2//52
f 54//53 55//54 2//53
f 55//54 56//55 2//54
f 56//55 57//56 2//55
f 57//56 58//57 2//56
f 58//57 59//58 2//57
f 59//58 60//59 2//58
f 60//59 61//60 2//59
f 61//60 62//61 2//60
f 62//61 63//62 2//61
f 63//62 64//63 2//62
f 64//63 65//64 2//63
f 65//64 66//65 2//64
f 66//65 3//2 2//65
