# High-Quality Cylinder
v 0.0 0.0 0.0
v 0.0 0.0 1.0
v 1.000000 0.000000 0.0
v 0.995185 0.098017 0.0
v 0.980785 0.195090 0.0
v 0.956940 0.290285 0.0
v 0.923880 0.382683 0.0
v 0.881921 0.471397 0.0
v 0.831470 0.555570 0.0
v 0.773010 0.634393 0.0
v 0.707107 0.707107 0.0
v 0.634393 0.773010 0.0
v 0.555570 0.831470 0.0
v 0.471397 0.881921 0.0
v 0.382683 0.923880 0.0
v 0.290285 0.956940 0.0
v 0.195090 0.980785 0.0
v 0.098017 0.995185 0.0
v 0.000000 1.000000 0.0
v -0.098017 0.995185 0.0
v -0.195090 0.980785 0.0
v -0.290285 0.956940 0.0
v -0.382683 0.923880 0.0
v -0.471397 0.881921 0.0
v -0.555570 0.831470 0.0
v -0.634393 0.773010 0.0
v -0.707107 0.707107 0.0
v -0.773010 0.634393 0.0
v -0.831470 0.555570 0.0
v -0.881921 0.471397 0.0
v -0.923880 0.382683 0.0
v -0.956940 0.290285 0.0
v -0.980785 0.195090 0.0
v -0.995185 0.098017 0.0
v -1.000000 0.000000 0.0
v -0.995185 -0.098017 0.0
v -0.980785 -0.195090 0.0
v -0.956940 -0.290285 0.0
v -0.923880 -0.382683 0.0
v -0.881921 -0.471397 0.0
v -0.831470 -0.555570 0.0
v -0.773010 -0.634393 0.0
v -0.707107 -0.707107 0.0
v -0.634393 -0.773010 0.0
v -0.555570 -0.831470 0.0
v -0.471397 -0.881921 0.0
v -0.382683 -0.923880 0.0
v -0.290285 -0.956940 0.0
v -0.195090 -0.980785 0.0
v -0.098017 -0.995185 0.0
v -0.000000 -1.000000 0.0
v 0.098017 -0.995185 0.0
v 0.195090 -0.980785 0.0
v 0.290285 -0.956940 0.0
v 0.382683 -0.923880 0.0
v 0.471397 -0.881921 0.0
v 0.555570 -0.831470 0.0
v 0.634393 -0.773010 0.0
v 0.707107 -0.707107 0.0
v 0.773010 -0.634393 0.0
v 0.831470 -0.555570 0.0
v 0.881921 -0.471397 0.0
v 0.923880 -0.382683 0.0
v 0.956940 -0.290285 0.0
v 0.980785 -0.195090 0.0
v 0.995185 -0.098017 0.0
v 1.000000 0.000000 1.0
v 0.995185 0.098017 1.0
v 0.980785 0.195090 1.0
v 0.956940 0.290285 1.0
v 0.923880 0.382683 1.0
v 0.881921 0.471397 1.0
v 0.831470 0.555570 1.0
v 0.773010 0.634393 1.0
v 0.707107 0.707107 1.0
v 0.634393 0.773010 1.0
v 0.555570 0.831470 1.0
v 0.471397 0.881921 1.0
v 0.382683 0.923880 1.0
v 0.290285 0.956940 1.0
v 0.195090 0.980785 1.0
v 0.098017 0.995185 1.0
v 0.000000 1.000000 1.0
v -0.098017 0.995185 1.0
v -0.195090 0.980785 1.0
v -0.290285 0.956940 1.0
v -0.382683 0.923880 1.0
v -0.471397 0.881921 1.0
v -0.555570 0.831470 1.0
v -0.634393 0.773010 1.0
v -0.707107 0.707107 1.0
v -0.773010 0.634393 1.0
v -0.831470 0.555570 1.0
v -0.881921 0.471397 1.0
v -0.923880 0.382683 1.0
v -0.956940 0.290285 1.0
v -0.980785 0.195090 1.0
v -0.995185 0.098017 1.0
v -1.000000 0.000000 1.0
v -0.995185 -0.098017 1.0
v -0.980785 -0.195090 1.0
v -0.956940 -0.290285 1.0
v -0.923880 -0.382683 1.0
v -0.881921 -0.471397 1.0
v -0.831470 -0.555570 1.0
v -0.773010 -0.634393 1.0
v -0.707107 -0.707107 1.0
v -0.634393 -0.773010 1.0
v -0.555570 -0.831470 1.0
v -0.471397 -0.881921 1.0
v -0.382683 -0.923880 1.0
v -0.290285 -0.956940 1.0
v -0.195090 -0.980785 1.0
v -0.098017 -0.995185 1.0
v -0.000000 -1.000000 1.0
v 0.098017 -0.995185 1.0
v 0.195090 -0.980785 1.0
v 0.290285 -0.956940 1.0
v 0.382683 -0.923880 1.0
v 0.471397 -0.881921 1.0
v 0.555570 -0.831470 1.0
v 0.634393 -0.773010 1.0
v 0.707107 -0.707107 1.0
v 0.773010 -0.634393 1.0
v 0.831470 -0.555570 1.0
v 0.881921 -0.471397 1.0
v 0.923880 -0.382683 1.0
v 0.956940 -0.290285 1.0
v 0.980785 -0.195090 1.0
v 0.995185 -0.098017 1.0
vn 0.0 0.0 -1.0
vn 0.0 0.0 1.0
vn 1.000000 0.000000 0.0
vn 0.995185 0.098017 0.0
vn 0.980785 0.195090 0.0
vn 0.956940 0.290285 0.0
vn 0.923880 0.382683 0.0
vn 0.881921 0.471397 0.0
vn 0.831470 0.555570 0.0
vn 0.773010 0.634393 0.0
vn 0.707107 0.707107 0.0
vn 0.634393 0.773010 0.0
vn 0.555570 0.831470 0.0
vn 0.471397 0.881921 0.0
vn 0.382683 0.923880 0.0
vn 0.290285 0.956940 0.0
vn 0.195090 0.980785 0.0
vn 0.098017 0.995185 0.0
vn 0.000000 1.000000 0.0
vn -0.098017 0.995185 0.0
vn -0.195090 0.980785 0.0
vn -0.290285 0.956940 0.0
vn -0.382683 0.923880 0.0
vn -0.471397 0.881921 0.0
vn -0.555570 0.831470 0.0
vn -0.634393 0.773010 0.0
vn -0.707107 0.707107 0.0
vn -0.773010 0.634393 0.0
vn -0.831470 0.555570 0.0
vn -0.881921 0.471397 0.0
vn -0.923880 0.382683 0.0
vn -0.956940 0.290285 0.0
vn -0.980785 0.195090 0.0
vn -0.995185 0.098017 0.0
vn -1.000000 0.000000 0.0
vn -0.995185 -0.098017 0.0
vn -0.980785 -0.195090 0.0
vn -0.956940 -0.290285 0.0
vn -0.923880 -0.382683 0.0
vn -0.881921 -0.471397 0.0
vn -0.831470 -0.555570 0.0
vn -0.773010 -0.634393 0.0
vn -0.707107 -0.707107 0.0
vn -0.634393 -0.773010 0.0
vn -0.555570 -0.831470 0.0
vn -0.471397 -0.881921 0.0
vn -0.382683 -0.923880 0.0
vn -0.290285 -0.956940 0.0
vn -0.195090 -0.980785 0.0
vn -0.098017 -0.995185 0.0
vn -0.000000 -1.000000 0.0
vn 0.098017 -0.995185 0.0
vn 0.195090 -0.980785 0.0
vn 0.290285 -0.956940 0.0
vn 0.382683 -0.923880 0.0
vn 0.471397 -0.881921 0.0
vn 0.555570 -0.831470 0.0
vn 0.634393 -0.773010 0.0
vn 0.707107 -0.707107 0.0
vn 0.773010 -0.634393 0.0
vn 0.831470 -0.555570 0.0
vn 0.881921 -0.471397 0.0
vn 0.923880 -0.382683 0.0
vn 0.956940 -0.290285 0.0
vn 0.980785 -0.195090 0.0
vn 0.995185 -0.098017 0.0
f 1//1 4//1 3//1
f 1//1 5//1 4//1
f 1//1 6//1 5//1
f 1//1 7//1 6//1
f 1//1 8//1 7//1
f 1//1 9//1 8//1
f 1//1 10//1 9//1
f 1//1 11//1 10//1
f 1//1 12//1 11//1
f 1//1 13//1 12//1
f 1//1 14//1 13//1
f 1//1 15//1 14//1
f 1//1 16//1 15//1
f 1//1 17//1 16//1
f 1//1 18//1 17//1
f 1//1 19//1 18//1
f 1//1 20//1 19//1
f 1//1 21//1 20//1
f 1//1 22//1 21//1
f 1//1 23//1 22//1
f 1//1 24//1 23//1
f 1//1 25//1 24//1
f 1//1 26//1 25//1
f 1//1 27//1 26//1
f 1//1 28//1 27//1
f 1//1 29//1 28//1
f 1//1 30//1 29//1
f 1//1 31//1 30//1
f 1//1 32//1 31//1
f 1//1 33//1 32//1
f 1//1 34//1 33//1
f 1//1 35//1 34//1
f 1//1 36//1 35//1
f 1//1 37//1 36//1
f 1//1 38//1 37//1
f 1//1 39//1 38//1
f 1//1 40//1 39//1
f 1//1 41//1 40//1
f 1//1 42//1 41//1
f 1//1 43//1 42//1
f 1//1 44//1 43//1
f 1//1 45//1 44//1
f 1//1 46//1 45//1
f 1//1 47//1 46//1
f 1//1 48//1 47//1
f 1//1 49//1 48//1
f 1//1 50//1 49//1
f 1//1 51//1 50//1
f 1//1 52//1 51//1
f 1//1 53//1 52//1
f 1//1 54//1 53//1
f 1//1 55//1 54//1
f 1//1 56//1 55//1
f 1//1 57//1 56//1
f 1//1 58//1 57//1
f 1//1 59//1 58//1
f 1//1 60//1 59//1
f 1//1 61//1 60//1
f 1//1 62//1 61//1
f 1//1 63//1 62//1
f 1//1 64//1 63//1
f 1//1 65//1 64//1
f 1//1 66//1 65//1
f 1//1 3//1 66//1
f 2//2 67//2 68//2
f 2//2 68//2 69//2
f 2//2 69//2 70//2
f 2//2 70//2 71//2
f 2//2 71//2 72//2
f 2//2 72//2 73//2
f 2//2 73//2 74//2
f 2//2 74//2 75//2
f 2//2 75//2 76//2
f 2//2 76//2 77//2
f 2//2 77//2 78//2
f 2//2 78//2 79//2
f 2//2 79//2 80//2
f 2//2 80//2 81//2
f 2//2 81//2 82//2
f 2//2 82//2 83//2
f 2//2 83//2 84//2
f 2//2 84//2 85//2
f 2//2 85//2 86//2
f 2//2 86//2 87//2
f 2//2 87//2 88//2
f 2//2 88//2 89//2
f 2//2 89//2 90//2
f 2//2 90//2 91//2
f 2//2 91//2 92//2
f 2//2 92//2 93//2
f 2//2 93//2 94//2
f 2//2 94//2 95//2
f 2//2 95//2 96//2
f 2//2 96//2 97//2
f 2//2 97//2 98//2
f 2//2 98//2 99//2
f 2//2 99//2 100//2
f 2//2 100//2 101//2
f 2//2 101//2 102//2
f 2//2 102//2 103//2
f 2//2 103//2 104//2
f 2//2 104//2 105//2
f 2//2 105//2 106//2
f 2//2 106//2 107//2
f 2//2 107//2 108//2
f 2//2 108//2 109//2
f 2//2 109//2 110//2
f 2//2 110//2 111//2
f 2//2 111//2 112//2
f 2//2 112//2 113//2
f 2//2 113//2 114//2
f 2//2 114//2 115//2
f 2//2 115//2 116//2
f 2//2 116//2 117//2
f 2//2 117//2 118//2
f 2//2 118//2 119//2
f 2//2 119//2 120//2
f 2//2 120//2 121//2
f 2//2 121//2 122//2
f 2//2 122//2 123//2
f 2//2 123//2 124//2
f 2//2 124//2 125//2
f 2//2 125//2 126//2
f 2//2 126//2 127//2
f 2//2 127//2 128//2
f 2//2 128//2 129//2
f 2//2 129//2 130//2
f 2//2 130//2 67//2
f 3//3 4//4 67//3
f 4//4 68//4 67//3
f 4//4 5//5 68//4
f 5//5 69//5 68//4
f 5//5 6//6 69//5
f 6//6 70//6 69//5
f 6//6 7//7 70//6
f 7//7 71//7 70//6
f 7//7 8//8 71//7
f 8//8 72//8 71//7
f 8//8 9//9 72//8
f 9//9 73//9 72//8
f 9//9 10//10 73//9
f 10//10 74//10 73//9
f 10//10 11//11 74//10
f 11//11 75//11 74//10
f 11//11 12//12 75//11
f 12//12 76//12 75//11
f 12//12 13//13 76//12
f 13//13 77//13 76//12
f 13//13 14//14 77//13
f 14//14 78//14 77//13
f 14//14 15//15 78//14
f 15//15 79//15 78//14
f 15//15 16//16 79//15
f 16//16 80//16 79//15
f 16//16 17//17 80//16
f 17//17 81//17 80//16
f 17//17 18//18 81//17
f 18//18 82//18 81//17
f 18//18 19//19 82//18
f 19//19 83//19 82//18
f 19//19 20//20 83//19
f 20//20 84//20 83//19
f 20//20 21//21 84//20
f 21//21 85//21 84//20
f 21//21 22//22 85//21
f 22//22 86//22 85//21
f 22//22 23//23 86//22
f 23//23 87//23 86//22
f 23//23 24//24 87//23
f 24//24 88//24 87//23
f 24//24 25//25 88//24
f 25//25 89//25 88//24
f 25//25 26//26 89//25
f 26//26 90//26 89//25
f 26//26 27//27 90//26
f 27//27 91//27 90//26
f 27//27 28//28 91//27
f 28//28 92//28 91//27
f 28//28 29//29 92//28
f 29//29 93//29 92//28
f 29//29 30//30 93//29
f 30//30 94//30 93//29
f 30//30 31//31 94//30
f 31//31 95//31 94//30
f 31//31 32//32 95//31
f 32//32 96//32 95//31
f 32//32 33//33 96//32
f 33//33 97//33 96//32
f 33//33 34//34 97//33
f 34//34 98//34 97//33
f 34//34 35//35 98//34
f 35//35 99//35 98//34
f 35//35 36//36 99//35
f 36//36 100//36 99//35
f 36//36 37//37 100//36
f 37//37 101//37 100//36
f 37//37 38//38 101//37
f 38//38 102//38 101//37
f 38//38 39//39 102//38
f 39//39 103//39 102//38
f 39//39 40//40 103//39
f 40//40 104//40 103//39
f 40//40 41//41 104//40
f 41//41 105//41 104//40
f 41//41 42//42 105//41
f 42//42 106//42 105//41
f 42//42 43//43 106//42
f 43//43 107//43 106//42
f 43//43 44//44 107//43
f 44//44 108//44 107//43
f 44//44 45//45 108//44
f 45//45 109//45 108//44
f 45//45 46//46 109//45
f 46//46 110//46 109//45
f 46//46 47//47 110//46
f 47//47 111//47 110//46
f 47//47 48//48 111//47
f 48//48 112//48 111//47
f 48//48 49//49 112//48
f 49//49 113//49 112//48
f 49//49 50//50 113//49
f 50//50 114//50 113//49
f 50//50 51//51 114//50
f 51//51 115//51 114//50
f 51//51 52//52 115//51
f 52//52 116//52 115//51
f 52//52 53//53 116//52
f 53//53 117//53 116//52
f 53//53 54//54 117//53
f 54//54 118//54 117//53
f 54//54 55//55 118//54
f 55//55 119//55 118//54
f 55//55 56//56 119//55
f 56//56 120//56 119//55
f 56//56 57//57 120//56
f 57//57 121//57 120//56
f 57//57 58//58 121//57
f 58//58 122//58 121//57
f 58//58 59//59 122//58
f 59//59 123//59 122//58
f 59//59 60//60 123//59
f 60//60 124//60 123//59
f 60//60 61//61 124//60
f 61//61 125//61 124//60
f 61//61 62//62 125//61
f 62//62 126//62 125//61
f 62//62 63//63 126//62
f 63//63 127//63 126//62
f 63//63 64//64 127//63
f 64//64 128//64 127//63
f 64//64 65//65 128//64
f 65//65 129//65 128//64
f 65//65 66//66 129//65
f 66//66 130//66 129//65
f 66//66 3//3 130//66
f 3//3 67//3 130//66
